# xmcd CD database file
#
# Track frame offsets:
#	183
#	16879
#	35530
#	57266
#	76965
#	97474
#	112810
#	130588
#
# Disc length: 1966 seconds
#
# Revision: 2
# Processed by: cddbd v1.5.1PL0 Copyright (c) Steve Scherf et al.
# Submitted via: CDex 1.51
#
DISCID=5e07ac08
DTITLE=Gloria Scott - What Am I Gonna Do
DYEAR=1974
DGENRE=Funk
TTITLE0=What Am I Gonna Do
TTITLE1=It's Better To Have No Love
TTITLE2=I Think Of You
TTITLE3=Love Me, Love Me, Love Me
TTITLE4=I Just Couldn't Take A Goodbye
TTITLE5=That's What You Say (Everytime You're Near Me)
TTITLE6=(A Case Of)Too Much Lovemakin'
TTITLE7=Help Me Get Off This Merry-Go-Round
EXTD=YEAR: 1974
EXTT0=
EXTT1=
EXTT2=
EXTT3=
EXTT4=
EXTT5=
EXTT6=
EXTT7=
PLAYORDER=
